<svg xmlns="http://www.w3.org/2000/svg" viewBox="0 0 1000 180" role="img" aria-labelledby="title">
  <title id="title">SIGVRA</title>
  <g fill="#ffffff">
    <!-- S -->
    <path d="M25 35h150l-18 28H67L52 82h92l20 25-30 38H8l18-28h92l15-19H40L20 73Z"/>
    <!-- I -->
    <rect x="205" y="35" width="24" height="110"/>
    <!-- G -->
    <path d="M275 35h145v28H316l-35 41 35 41h76v-28h-48V91h76v54H303l-59-69 59-41Z"/>
    <!-- emblem replacing V -->
    <path d="M465 22 521 82l-18 14-38-39Z"/>
    <path d="m577 22-56 60 18 14 38-39Z"/>
    <path d="M513 10h16v132l-8 26-8-26Z"/>
    <path d="m503 96 18 12v38l-18-18Z"/>
    <path d="m539 96-18 12v38l18-18Z"/>
    <!-- R -->
    <path d="M625 35h145c31 0 52 18 52 45 0 20-11 35-31 42l35 23h-45l-31-21h-93v21h-32Zm32 28v35h109c15 0 23-6 23-18 0-11-8-17-23-17Z"/>
    <!-- A -->
    <path d="M885 35h28l70 110h-39l-45-73-45 73h-39Z"/>
  </g>
</svg>
